<svg version="1.0" xmlns="http://www.w3.org/2000/svg"
 width="100.000000pt" height="100.000000pt" viewBox="0 0 100.000000 100.000000"
 preserveAspectRatio="xMidYMid meet">

<g transform="translate(0.000000,100.000000) scale(0.100000,-0.100000)"
fill="#000000" stroke="none">
<path d="M231 946 c-87 -48 -50 -186 49 -186 51 0 100 49 100 99 0 75 -83 124
-149 87z m89 -46 c11 -11 20 -29 20 -40 0 -26 -34 -60 -60 -60 -26 0 -60 34
-60 60 0 11 9 29 20 40 11 11 29 20 40 20 11 0 29 -9 40 -20z"/>
<path d="M651 946 c-87 -48 -50 -186 49 -186 51 0 100 49 100 99 0 75 -83 124
-149 87z m89 -46 c11 -11 20 -29 20 -40 0 -11 -9 -29 -20 -40 -11 -11 -29 -20
-40 -20 -11 0 -29 9 -40 20 -11 11 -20 29 -20 40 0 11 9 29 20 40 11 11 29 20
40 20 11 0 29 -9 40 -20z"/>
<path d="M138 724 c-50 -26 -58 -58 -58 -219 0 -132 2 -147 20 -165 11 -11 29
-20 40 -20 19 0 20 -7 20 -123 0 -155 0 -155 120 -155 112 0 120 7 120 105 0
42 4 73 10 73 6 0 10 -31 10 -74 0 -91 11 -106 79 -106 68 0 81 18 81 108 0
41 4 72 10 72 6 0 10 -29 10 -68 0 -94 10 -105 95 -108 95 -3 105 9 105 126
l0 90 34 0 c40 0 60 20 54 54 -4 18 1 27 18 34 39 19 38 45 -11 195 -62 187
-71 197 -193 197 -91 0 -132 -14 -132 -47 0 -12 5 -13 23 -8 12 5 59 10 103
12 105 6 109 2 160 -165 44 -143 45 -147 25 -147 -9 0 -26 35 -46 95 -21 64
-37 96 -48 98 -25 5 -22 -21 23 -153 22 -65 40 -120 40 -122 0 -2 -47 -3 -105
-3 l-105 0 0 75 c0 67 -3 79 -25 100 -22 23 -32 25 -115 25 -83 0 -93 -2 -115
-25 -25 -24 -25 -26 -25 -210 l0 -185 -30 0 -29 0 -3 143 c-3 118 -5 142 -18
142 -13 0 -15 -24 -18 -142 l-3 -143 -29 0 -30 0 -2 257 c-3 222 -5 258 -18
258 -12 0 -16 -22 -20 -115 -4 -93 -8 -115 -20 -115 -13 0 -15 24 -18 144 -2
137 -1 145 19 168 21 22 30 23 139 23 72 0 120 -4 127 -11 13 -13 33 -4 33 15
0 25 -51 36 -163 36 -79 -1 -120 -5 -139 -16z m451 -278 c8 -9 11 -44 9 -97
-3 -79 -4 -83 -28 -89 -24 -6 -25 -9 -28 -93 l-3 -87 -39 0 -39 0 -3 87 c-3
84 -4 87 -28 93 -24 6 -25 10 -28 89 -2 53 1 88 9 97 8 10 35 14 89 14 54 0
81 -4 89 -14z m89 -273 c-2 -70 -6 -88 -18 -88 -12 0 -16 18 -18 88 -3 82 -2
87 18 87 20 0 21 -5 18 -87z m80 0 c-2 -70 -6 -88 -18 -88 -12 0 -16 18 -18
88 -3 82 -2 87 18 87 20 0 21 -5 18 -87z"/>
<path d="M445 655 c-16 -15 -25 -36 -25 -55 0 -19 9 -40 25 -55 15 -16 36 -25
55 -25 19 0 40 9 55 25 50 49 15 135 -55 135 -19 0 -40 -9 -55 -25z m85 -30
c26 -32 -13 -81 -47 -59 -23 14 -28 41 -13 59 16 19 44 19 60 0z"/>
</g>
</svg>
